<?xml version="1.0" encoding="utf-8"?>
<!-- Generator: Adobe Illustrator 22.1.0, SVG Export Plug-In . SVG Version: 6.00 Build 0)  -->
<svg version="1.1" id="Layer_1" xmlns="http://www.w3.org/2000/svg" xmlns:xlink="http://www.w3.org/1999/xlink" x="0px" y="0px"
	 viewBox="0 0 80 80" style="enable-background:new 0 0 80 80;" xml:space="preserve">
<style type="text/css">
	.st0{fill:#828282;}
</style>
<path class="st0" d="M75.3,40.8C75.3,21,59.2,5,39.4,5S3.6,21,3.6,40.8c0,10.4,4.5,19.8,11.6,26.4l0,0l1.2,1
	c0.1,0.1,0.2,0.1,0.2,0.2c0.6,0.5,1.3,1,1.9,1.5c0.2,0.2,0.4,0.3,0.6,0.5c0.7,0.5,1.4,0.9,2.1,1.4c0.2,0.1,0.3,0.2,0.5,0.3
	c0.8,0.5,1.6,0.9,2.5,1.3c0.1,0,0.1,0.1,0.2,0.1c2.7,1.3,5.6,2.2,8.7,2.7c0.1,0,0.2,0,0.2,0c0.9,0.2,1.9,0.3,2.9,0.4
	c0.1,0,0.2,0,0.4,0c1,0.1,1.9,0.1,2.9,0.1c1,0,1.9-0.1,2.9-0.1c0.1,0,0.2,0,0.4,0c1-0.1,1.9-0.2,2.8-0.4c0.1,0,0.2,0,0.2,0
	c3-0.5,5.9-1.4,8.5-2.7c0.1,0,0.2-0.1,0.3-0.1c0.8-0.4,1.6-0.8,2.4-1.2c0.2-0.1,0.4-0.2,0.6-0.3c0.7-0.4,1.4-0.8,2.1-1.3
	c0.2-0.2,0.5-0.3,0.7-0.5c0.6-0.4,1.1-0.8,1.7-1.3c0.1-0.1,0.3-0.2,0.4-0.3l1.2-1l0,0C70.7,60.7,75.3,51.3,75.3,40.8z M6.2,40.8
	c0-18.3,14.9-33.2,33.2-33.2s33.2,14.9,33.2,33.2c0,9.9-4.3,18.8-11.2,24.8c-0.4-0.3-0.8-0.5-1.2-0.7l-11-5.5
	c-1-0.5-1.6-1.5-1.6-2.6V53c0.3-0.3,0.5-0.7,0.8-1.1c1.4-2,2.6-4.3,3.4-6.7c1.7-0.8,2.7-2.4,2.7-4.3v-4.6c0-1.1-0.4-2.2-1.2-3.1
	v-6.1c0.1-0.7,0.3-4.5-2.5-7.6c-2.4-2.7-6.3-4.1-11.6-4.1s-9.2,1.4-11.6,4.1c-2.8,3.1-2.5,7-2.5,7.6v6.1c-0.7,0.9-1.2,2-1.2,3.1v4.6
	c0,1.4,0.6,2.8,1.7,3.7c1.1,4.1,3.2,7.3,4,8.3v3.8c0,1.1-0.6,2-1.5,2.6l-10.3,5.6c-0.3,0.2-0.7,0.4-1,0.6
	C10.4,59.4,6.2,50.6,6.2,40.8z"/>
</svg>
