<?xml version="1.0" encoding="utf-8"?>
<!-- Generator: Adobe Illustrator 22.1.0, SVG Export Plug-In . SVG Version: 6.00 Build 0)  -->
<svg version="1.1" id="Layer_1" xmlns="http://www.w3.org/2000/svg" xmlns:xlink="http://www.w3.org/1999/xlink" x="0px" y="0px"
	 viewBox="0 0 65 50" style="enable-background:new 0 0 65 50;" xml:space="preserve">
<style type="text/css">
	.st0{fill:#D7D7D7;}
	.st1{fill:#353535;}
</style>
<rect class="st0" width="65" height="50"/>
<g>
	<g>
		<path class="st1" d="M32.5,23c-1.6,0-2.9,1.3-2.9,2.9c0,1.6,1.3,2.9,2.9,2.9c1.6,0,2.9-1.3,2.9-2.9C35.4,24.4,34.1,23,32.5,23z
			 M40.3,20.1H38c-0.3,0-0.7-0.2-0.8-0.6l-0.6-1.8c-0.1-0.3-0.4-0.6-0.8-0.6h-6.6c-0.3,0-0.7,0.2-0.8,0.6l-0.6,1.8
			c-0.1,0.3-0.4,0.6-0.8,0.6h-2.3c-1.1,0-2,0.9-2,2v8.8c0,1.1,0.9,2,2,2h15.6c1.1,0,2-0.9,2-2v-8.8C42.3,21,41.4,20.1,40.3,20.1z
			 M32.5,30.9c-2.7,0-4.9-2.2-4.9-4.9c0-2.7,2.2-4.9,4.9-4.9c2.7,0,4.9,2.2,4.9,4.9C37.4,28.7,35.2,30.9,32.5,30.9z M39.6,23.4
			c-0.4,0-0.7-0.3-0.7-0.7c0-0.4,0.3-0.7,0.7-0.7c0.4,0,0.7,0.3,0.7,0.7C40.3,23.1,40,23.4,39.6,23.4z"/>
	</g>
</g>
</svg>
