<?xml version="1.0" encoding="utf-8"?>
<!-- Generator: Adobe Illustrator 22.1.0, SVG Export Plug-In . SVG Version: 6.00 Build 0)  -->
<svg version="1.1" id="Layer_1" xmlns="http://www.w3.org/2000/svg" xmlns:xlink="http://www.w3.org/1999/xlink" x="0px" y="0px"
	 viewBox="0 0 50 50" style="enable-background:new 0 0 50 50;" xml:space="preserve">
<style type="text/css">
	.st0{fill:#FFFFFF;}
	.st1{fill:#828282;}
</style>
<circle class="st0" cx="25" cy="25" r="23.8"/>
<g>
	<path class="st1" d="M25.8,31.8v-12l3.4,2.9c0.3,0.3,0.8,0.3,1.1,0c0.3-0.3,0.3-0.7,0-0.9l-4.7-4c-0.3-0.3-0.8-0.3-1.1,0l-4.7,4
		c-0.1,0.1-0.2,0.3-0.2,0.5c0,0.2,0.1,0.3,0.2,0.5c0.3,0.3,0.8,0.3,1.1,0l3.4-2.9v12c0,0.4,0.3,0.6,0.8,0.6S25.8,32.2,25.8,31.8z"/>
</g>
</svg>
