<?xml version="1.0" encoding="utf-8"?>
<!-- Generator: Adobe Illustrator 22.1.0, SVG Export Plug-In . SVG Version: 6.00 Build 0)  -->
<svg version="1.1" id="Layer_1" xmlns="http://www.w3.org/2000/svg" xmlns:xlink="http://www.w3.org/1999/xlink" x="0px" y="0px"
	 viewBox="0 0 50 50" style="enable-background:new 0 0 50 50;" xml:space="preserve">
<style type="text/css">
	.st0{fill:#828282;}
</style>
<g>
	<path class="st0" d="M32.5,7.7c-6.9-6.9-18-6.9-24.9,0c-6.9,6.9-6.9,18,0,24.9c6.1,6.1,15.6,6.8,22.5,2c0.1,0.7,0.5,1.3,1,1.9
		l10,10c1.5,1.5,3.8,1.5,5.3,0c1.5-1.5,1.5-3.8,0-5.3l-10-10c-0.5-0.5-1.2-0.9-1.9-1C39.3,23.3,38.6,13.8,32.5,7.7z M29.4,29.4
		c-5.1,5.1-13.4,5.1-18.6,0c-5.1-5.1-5.1-13.4,0-18.6c5.1-5.1,13.4-5.1,18.6,0C34.5,16,34.5,24.3,29.4,29.4z"/>
</g>
</svg>
