<?xml version="1.0" encoding="utf-8"?>
<!-- Generator: Adobe Illustrator 22.1.0, SVG Export Plug-In . SVG Version: 6.00 Build 0)  -->
<svg version="1.1" id="Layer_1" xmlns="http://www.w3.org/2000/svg" xmlns:xlink="http://www.w3.org/1999/xlink" x="0px" y="0px"
	 viewBox="0 0 50 50" style="enable-background:new 0 0 50 50;" xml:space="preserve">
<style type="text/css">
	.st0{fill:#828282;}
	.st1{fill:#ED2224;}
</style>
<g>
	<g>
		<g>
			<g>
				<path class="st0" d="M39.1,12.1H4.6c-1.9,0-3.4,1.5-3.4,3.4v20.2c0,1.9,1.5,3.4,3.4,3.4h2v8.3c0,0.4,0.2,0.7,0.6,0.9
					c0.1,0,0.2,0.1,0.4,0.1c0.2,0,0.5-0.1,0.7-0.3l9-9h21.9c1.9,0,3.4-1.5,3.4-3.4V15.5C42.4,13.6,40.9,12.1,39.1,12.1z M39.1,37.1
					H16.8c-0.2,0-0.5,0.1-0.6,0.2c0,0,0,0,0,0c0,0,0,0,0,0L8.5,45V38c0,0,0-0.1,0-0.1c0-0.5-0.5-0.9-1-0.9H4.6
					c-0.8,0-1.4-0.6-1.4-1.4V15.5c0-0.8,0.6-1.4,1.4-1.4h34.5c0.8,0,1.4,0.6,1.4,1.4v20.2l0,0C40.5,36.4,39.9,37.1,39.1,37.1z"/>
			</g>
		</g>
		<g>
			<g>
				<path class="st0" d="M15.2,19.1H9.6c-0.5,0-1,0.4-1,1c0,0.5,0.4,1,1,1h5.6c0.5,0,1-0.4,1-1C16.2,19.5,15.8,19.1,15.2,19.1z"/>
			</g>
		</g>
		<g>
			<g>
				<path class="st0" d="M25.2,24.6H9.6c-0.5,0-1,0.4-1,1c0,0.5,0.4,1,1,1h15.5c0.5,0,1-0.4,1-1C26.1,25,25.7,24.6,25.2,24.6z"/>
			</g>
		</g>
		<g>
			<g>
				<path class="st0" d="M34,19.1H20.8c-0.5,0-1,0.4-1,1c0,0.5,0.4,1,1,1H34c0.5,0,1-0.4,1-1C35,19.5,34.5,19.1,34,19.1z"/>
			</g>
		</g>
		<g>
			<g>
				<path class="st0" d="M34,24.6h-3.5c-0.5,0-1,0.4-1,1c0,0.5,0.4,1,1,1H34c0.5,0,1-0.4,1-1C35,25,34.5,24.6,34,24.6z"/>
			</g>
		</g>
		<g>
			<g>
				<path class="st0" d="M18.3,30.1H9.6c-0.5,0-1,0.4-1,1c0,0.5,0.4,1,1,1h8.7c0.5,0,1-0.4,1-1C19.3,30.5,18.8,30.1,18.3,30.1z"/>
			</g>
		</g>
		<g>
			<g>
				<path class="st0" d="M34,30.1H23.4c-0.5,0-1,0.4-1,1c0,0.5,0.4,1,1,1H34c0.5,0,1-0.4,1-1C35,30.5,34.5,30.1,34,30.1z"/>
			</g>
		</g>
	</g>
	<g>
		<g>
			<path class="st1" d="M48.9,15.7l-1.7,0.7l0.5,1.7L46,18l-0.2,1.8l-1.6-0.7l-0.8,1.6l-1.2-1.3l-1.4,1.1l-0.7-1.7l-1.7,0.5l0-1.8
				l-1.8-0.2l0.7-1.6L35.8,15l1.3-1.2L36,12.4l1.7-0.7l-0.5-1.7l1.8,0L39,8.3L40.6,9l0.8-1.6l1.2,1.3l1.4-1.1l0.7,1.6l1.7-0.5l0,1.8
				l1.8,0.2l-0.7,1.6l1.6,0.8l-1.3,1.2L48.9,15.7z"/>
		</g>
	</g>
</g>
</svg>
