<?xml version="1.0" encoding="utf-8"?>
<!-- Generator: Adobe Illustrator 22.1.0, SVG Export Plug-In . SVG Version: 6.00 Build 0)  -->
<svg version="1.1" id="Layer_1" xmlns="http://www.w3.org/2000/svg" xmlns:xlink="http://www.w3.org/1999/xlink" x="0px" y="0px"
	 viewBox="0 0 50 50" style="enable-background:new 0 0 50 50;" xml:space="preserve">
<style type="text/css">
	.st0{fill:#828282;}
</style>
<g>
	<g>
		<g>
			<path class="st0" d="M21,39.5c-2.3,0-4.1,1.8-4.1,4.1c0,2.3,1.8,4.1,4.1,4.1s4.1-1.8,4.1-4.1C25.1,41.4,23.2,39.5,21,39.5z
				 M21,45.4c-1,0-1.8-0.8-1.8-1.8c0-1,0.8-1.8,1.8-1.8s1.8,0.8,1.8,1.8C22.8,44.6,22,45.4,21,45.4z"/>
		</g>
	</g>
	<g>
		<g>
			<path class="st0" d="M35.4,39.5c-2.3,0-4.1,1.8-4.1,4.1c0,2.3,1.8,4.1,4.1,4.1s4.1-1.8,4.1-4.1C39.5,41.4,37.6,39.5,35.4,39.5z
				 M35.4,45.4c-1,0-1.8-0.8-1.8-1.8c0-1,0.8-1.8,1.8-1.8c1,0,1.8,0.8,1.8,1.8C37.2,44.6,36.4,45.4,35.4,45.4z"/>
		</g>
	</g>
	<g>
		<g>
			<path class="st0" d="M36.4,17.9H20c-0.6,0-1.1,0.5-1.1,1.1c0,0.6,0.5,1.1,1.1,1.1h16.4c0.6,0,1.1-0.5,1.1-1.1
				C37.5,18.4,37,17.9,36.4,17.9z"/>
		</g>
	</g>
	<g>
		<g>
			<path class="st0" d="M35.5,23.9H20.8c-0.6,0-1.1,0.5-1.1,1.1c0,0.6,0.5,1.1,1.1,1.1h14.6c0.6,0,1.1-0.5,1.1-1.1
				C36.6,24.4,36.1,23.9,35.5,23.9z"/>
		</g>
	</g>
	<g>
		<g>
			<path class="st0" d="M47.6,12.8c-0.4-0.5-1.1-0.8-1.8-0.8H10.1L9.4,8.5C9.2,7.7,8.7,7.1,8,6.8L3,4.6c-0.6-0.3-1.3,0-1.5,0.6
				c-0.3,0.6,0,1.3,0.6,1.5l5,2.2l5.5,26.9c0.2,1.1,1.2,1.8,2.2,1.8h27.5c0.6,0,1.1-0.5,1.1-1.1s-0.5-1.1-1.1-1.1H14.9l-0.7-3.3
				h28.3c1.1,0,2-0.8,2.2-1.8L48,14.7C48.2,14,48,13.3,47.6,12.8z M42.6,29.8H13.8l-3.2-15.6l35.2,0L42.6,29.8z"/>
		</g>
	</g>
</g>
</svg>
