<?xml version="1.0" encoding="utf-8"?>
<!-- Generator: Adobe Illustrator 22.1.0, SVG Export Plug-In . SVG Version: 6.00 Build 0)  -->
<svg version="1.1" id="Layer_1" xmlns="http://www.w3.org/2000/svg" xmlns:xlink="http://www.w3.org/1999/xlink" x="0px" y="0px"
	 viewBox="0 0 50 50" style="enable-background:new 0 0 50 50;" xml:space="preserve">
<style type="text/css">
	.st0{fill:#828282;}
	.st1{fill:#FFFFFF;}
	.st2{fill:#ED2224;}
</style>
<g>
	<g>
		<g>
			<path class="st0" d="M-111.8-25.9c-2.3,0-4.1,1.8-4.1,4.1c0,2.3,1.8,4.1,4.1,4.1s4.1-1.8,4.1-4.1
				C-107.7-24.1-109.6-25.9-111.8-25.9z M-111.8-20c-1,0-1.8-0.8-1.8-1.8c0-1,0.8-1.8,1.8-1.8s1.8,0.8,1.8,1.8
				C-110-20.8-110.8-20-111.8-20z"/>
		</g>
	</g>
	<g>
		<g>
			<path class="st0" d="M-97.5-25.9c-2.3,0-4.1,1.8-4.1,4.1c0,2.3,1.8,4.1,4.1,4.1s4.1-1.8,4.1-4.1C-93.3-24.1-95.2-25.9-97.5-25.9z
				 M-97.5-20c-1,0-1.8-0.8-1.8-1.8c0-1,0.8-1.8,1.8-1.8c1,0,1.8,0.8,1.8,1.8C-95.6-20.8-96.5-20-97.5-20z"/>
		</g>
	</g>
	<g>
		<g>
			<path class="st0" d="M-96.4-47.5h-16.4c-0.6,0-1.1,0.5-1.1,1.1s0.5,1.1,1.1,1.1h16.4c0.6,0,1.1-0.5,1.1-1.1
				C-95.3-47-95.8-47.5-96.4-47.5z"/>
		</g>
	</g>
	<g>
		<g>
			<path class="st0" d="M-97.3-41.6H-112c-0.6,0-1.1,0.5-1.1,1.1s0.5,1.1,1.1,1.1h14.6c0.6,0,1.1-0.5,1.1-1.1
				C-96.2-41.1-96.7-41.6-97.3-41.6z"/>
		</g>
	</g>
	<g>
		<g>
			<path class="st0" d="M-85.3-52.6c-0.4-0.5-1.1-0.8-1.8-0.8h-35.7l-0.7-3.5c-0.2-0.7-0.6-1.3-1.3-1.6l-5-2.2
				c-0.6-0.3-1.3,0-1.5,0.6c-0.3,0.6,0,1.3,0.6,1.5l5,2.2l5.5,26.9c0.2,1.1,1.2,1.8,2.2,1.8h27.5c0.6,0,1.1-0.5,1.1-1.1
				c0-0.6-0.5-1.1-1.1-1.1h-27.5l-0.7-3.3h28.3c1.1,0,2-0.8,2.2-1.8l3.2-15.6C-84.7-51.4-84.8-52.1-85.3-52.6z M-90.2-35.6h-28.8
				l-3.2-15.6l35.2,0L-90.2-35.6z"/>
		</g>
	</g>
</g>
<g>
	<path class="st0" d="M-56.5-95.6c-6.9-6.9-18-6.9-24.9,0c-6.9,6.9-6.9,18,0,24.9c6.1,6.1,15.6,6.8,22.5,2c0.1,0.7,0.5,1.3,1,1.9
		l10,10c1.5,1.5,3.8,1.5,5.3,0c1.5-1.5,1.5-3.8,0-5.3l-10-10c-0.5-0.5-1.2-0.9-1.9-1C-49.8-80-50.4-89.5-56.5-95.6z M-59.7-73.9
		c-5.1,5.1-13.4,5.1-18.6,0c-5.1-5.1-5.1-13.4,0-18.6c5.1-5.1,13.4-5.1,18.6,0C-54.6-87.3-54.6-79-59.7-73.9z"/>
</g>
<circle class="st1" cx="-165.2" cy="-95.5" r="23.8"/>
<g>
	<path class="st0" d="M-165.9-102.3v12l-3.4-2.9c-0.3-0.3-0.8-0.3-1.1,0c-0.3,0.3-0.3,0.7,0,0.9l4.7,4c0.3,0.3,0.8,0.3,1.1,0l4.7-4
		c0.1-0.1,0.2-0.3,0.2-0.5s-0.1-0.3-0.2-0.5c-0.3-0.3-0.8-0.3-1.1,0l-3.4,2.9v-12c0-0.4-0.3-0.6-0.8-0.6
		C-165.6-102.9-165.9-102.7-165.9-102.3z"/>
</g>
<g>
	<g>
		<g>
			<g>
				<path class="st0" d="M39.1,12.1H4.6c-1.9,0-3.4,1.5-3.4,3.4v20.2c0,1.9,1.5,3.4,3.4,3.4h2v8.3c0,0.4,0.2,0.7,0.6,0.9
					c0.1,0,0.2,0.1,0.4,0.1c0.2,0,0.5-0.1,0.7-0.3l9-9h21.9c1.9,0,3.4-1.5,3.4-3.4V15.5C42.4,13.6,40.9,12.1,39.1,12.1z M39.1,37.1
					H16.8c-0.2,0-0.5,0.1-0.6,0.2c0,0,0,0,0,0c0,0,0,0,0,0L8.5,45V38c0,0,0-0.1,0-0.1c0-0.5-0.5-0.9-1-0.9H4.6
					c-0.8,0-1.4-0.6-1.4-1.4V15.5c0-0.8,0.6-1.4,1.4-1.4h34.5c0.8,0,1.4,0.6,1.4,1.4v20.2l0,0C40.5,36.4,39.9,37.1,39.1,37.1z"/>
			</g>
		</g>
		<g>
			<g>
				<path class="st0" d="M15.2,19.1H9.6c-0.5,0-1,0.4-1,1c0,0.5,0.4,1,1,1h5.6c0.5,0,1-0.4,1-1C16.2,19.5,15.8,19.1,15.2,19.1z"/>
			</g>
		</g>
		<g>
			<g>
				<path class="st0" d="M25.2,24.6H9.6c-0.5,0-1,0.4-1,1c0,0.5,0.4,1,1,1h15.5c0.5,0,1-0.4,1-1C26.1,25,25.7,24.6,25.2,24.6z"/>
			</g>
		</g>
		<g>
			<g>
				<path class="st0" d="M34,19.1H20.8c-0.5,0-1,0.4-1,1c0,0.5,0.4,1,1,1H34c0.5,0,1-0.4,1-1C35,19.5,34.5,19.1,34,19.1z"/>
			</g>
		</g>
		<g>
			<g>
				<path class="st0" d="M34,24.6h-3.5c-0.5,0-1,0.4-1,1c0,0.5,0.4,1,1,1H34c0.5,0,1-0.4,1-1C35,25,34.5,24.6,34,24.6z"/>
			</g>
		</g>
		<g>
			<g>
				<path class="st0" d="M18.3,30.1H9.6c-0.5,0-1,0.4-1,1c0,0.5,0.4,1,1,1h8.7c0.5,0,1-0.4,1-1C19.3,30.5,18.8,30.1,18.3,30.1z"/>
			</g>
		</g>
		<g>
			<g>
				<path class="st0" d="M34,30.1H23.4c-0.5,0-1,0.4-1,1c0,0.5,0.4,1,1,1H34c0.5,0,1-0.4,1-1C35,30.5,34.5,30.1,34,30.1z"/>
			</g>
		</g>
	</g>
	<g>
		<g>
			<path class="st2" d="M48.9,15.7l-1.7,0.7l0.5,1.7L46,18l-0.2,1.8l-1.6-0.7l-0.8,1.6l-1.2-1.3l-1.4,1.1l-0.7-1.7l-1.7,0.5l0-1.8
				l-1.8-0.2l0.7-1.6L35.8,15l1.3-1.2L36,12.4l1.7-0.7l-0.5-1.7l1.8,0L39,8.3L40.6,9l0.8-1.6l1.2,1.3l1.4-1.1l0.7,1.6l1.7-0.5l0,1.8
				l1.8,0.2l-0.7,1.6l1.6,0.8l-1.3,1.2L48.9,15.7z"/>
		</g>
	</g>
</g>
<g>
	<rect x="-145.5" y="-52.9" class="st0" width="25.6" height="2.2"/>
	<rect x="-155.7" y="-43" class="st0" width="35.8" height="2.2"/>
	<rect x="-166.8" y="-33.1" class="st0" width="46.9" height="2.2"/>
</g>
<path class="st0" d="M-66.4-127.9c0-19.8-16.1-35.8-35.8-35.8s-35.8,16.1-35.8,35.8c0,10.4,4.5,19.8,11.6,26.4l0,0l1.2,1
	c0.1,0.1,0.2,0.1,0.2,0.2c0.6,0.5,1.3,1,1.9,1.5c0.2,0.2,0.4,0.3,0.6,0.5c0.7,0.5,1.4,0.9,2.1,1.4c0.2,0.1,0.3,0.2,0.5,0.3
	c0.8,0.5,1.6,0.9,2.5,1.3c0.1,0,0.1,0.1,0.2,0.1c2.7,1.3,5.6,2.2,8.7,2.7c0.1,0,0.2,0,0.2,0c0.9,0.2,1.9,0.3,2.9,0.4
	c0.1,0,0.2,0,0.4,0c1,0.1,1.9,0.1,2.9,0.1c1,0,1.9-0.1,2.9-0.1c0.1,0,0.2,0,0.4,0c1-0.1,1.9-0.2,2.8-0.4c0.1,0,0.2,0,0.2,0
	c3-0.5,5.9-1.4,8.5-2.7c0.1,0,0.2-0.1,0.3-0.1c0.8-0.4,1.6-0.8,2.4-1.2c0.2-0.1,0.4-0.2,0.6-0.3c0.7-0.4,1.4-0.8,2.1-1.3
	c0.2-0.2,0.5-0.3,0.7-0.5c0.6-0.4,1.1-0.8,1.7-1.3c0.1-0.1,0.3-0.2,0.4-0.3l1.2-1l0,0C-70.9-107.9-66.4-117.4-66.4-127.9z
	 M-135.5-127.9c0-18.3,14.9-33.2,33.2-33.2S-69-146.2-69-127.9c0,9.9-4.3,18.8-11.2,24.8c-0.4-0.3-0.8-0.5-1.2-0.7l-11-5.5
	c-1-0.5-1.6-1.5-1.6-2.6v-3.9c0.3-0.3,0.5-0.7,0.8-1.1c1.4-2,2.6-4.3,3.4-6.7c1.7-0.8,2.7-2.4,2.7-4.3v-4.6c0-1.1-0.4-2.2-1.2-3.1
	v-6.1c0.1-0.7,0.3-4.5-2.5-7.6c-2.4-2.7-6.3-4.1-11.6-4.1s-9.2,1.4-11.6,4.1c-2.8,3.1-2.5,7-2.5,7.6v6.1c-0.7,0.9-1.2,2-1.2,3.1v4.6
	c0,1.4,0.6,2.8,1.7,3.7c1.1,4.1,3.2,7.3,4,8.3v3.8c0,1.1-0.6,2-1.5,2.6l-10.3,5.6c-0.3,0.2-0.7,0.4-1,0.6
	C-131.2-109.3-135.5-118.1-135.5-127.9z"/>
</svg>
